HIERARCHY
ROOT Hips
{
	OFFSET -0.001795 -0.223333 0.028219
	CHANNELS 6 Xposition Yposition Zposition Zrotation Yrotation Xrotation 
	JOINT LeftUpLeg
	{
		OFFSET 0.069520 -0.091406 -0.006815
		CHANNELS 3 Zrotation Yrotation Xrotation
		JOINT LeftLeg
		{
			OFFSET 0.034277 -0.375199 -0.004496
			CHANNELS 3 Zrotation Yrotation Xrotation
			JOINT LeftFoot
			{
				OFFSET -0.013596 -0.397961 -0.043693
				CHANNELS 3 Zrotation Yrotation Xrotation
				JOINT LeftToe
				{
					OFFSET 0.026358 -0.055791 0.119288
					CHANNELS 3 Zrotation Yrotation Xrotation
					End Site
					{
						OFFSET 0.000000 0.000000 0.000000
					}
				}
			}
		}
	}
	JOINT RightUpLeg
	{
		OFFSET -0.067670 -0.090522 -0.004320
		CHANNELS 3 Zrotation Yrotation Xrotation
		JOINT RightLeg
		{
			OFFSET -0.038290 -0.382569 -0.008850
			CHANNELS 3 Zrotation Yrotation Xrotation
			JOINT RightFoot
			{
				OFFSET 0.015774 -0.398415 -0.042312
				CHANNELS 3 Zrotation Yrotation Xrotation
				JOINT RightToe
				{
					OFFSET -0.025372 -0.048144 0.123348
					CHANNELS 3 Zrotation Yrotation Xrotation
					End Site
					{
						OFFSET 0.000000 0.000000 0.000000
					}
				}
			}
		}
	}
	JOINT Spine
	{
		OFFSET -0.002533 0.108963 -0.026696
		CHANNELS 3 Zrotation Yrotation Xrotation
		JOINT Spine1
		{
			OFFSET 0.005487 0.135180 0.001092
			CHANNELS 3 Zrotation Yrotation Xrotation
			JOINT Spine2
			{
				OFFSET 0.001457 0.052922 0.025425
				CHANNELS 3 Zrotation Yrotation Xrotation
				JOINT Neck
				{
					OFFSET -0.002778 0.213870 -0.042857
					CHANNELS 3 Zrotation Yrotation Xrotation
					JOINT Head
					{
						OFFSET 0.005152 0.064970 0.051349
						CHANNELS 3 Zrotation Yrotation Xrotation
						End Site
						{
							OFFSET 0.000000 0.000000 0.000000
						}
					}
				}
				JOINT LeftShoulder
				{
					OFFSET 0.078845 0.121749 -0.034090
					CHANNELS 3 Zrotation Yrotation Xrotation
					JOINT LeftArm
					{
						OFFSET 0.090977 0.030469 -0.008868
						CHANNELS 3 Zrotation Yrotation Xrotation
						JOINT LeftForeArm
						{
							OFFSET 0.259612 -0.012772 -0.027456
							CHANNELS 3 Zrotation Yrotation Xrotation
							JOINT LeftHand
							{
								OFFSET 0.249234 0.008986 -0.001171
								CHANNELS 3 Zrotation Yrotation Xrotation
								End Site
								{
									OFFSET 0.000000 0.000000 0.000000
								}
							}
						}
					}
				}
				JOINT RightShoulder
				{
					OFFSET -0.081759 0.118833 -0.038615
					CHANNELS 3 Zrotation Yrotation Xrotation
					JOINT RightArm
					{
						OFFSET -0.096012 0.032551 -0.009143
						CHANNELS 3 Zrotation Yrotation Xrotation
						JOINT RightForeArm
						{
							OFFSET -0.253742 -0.013329 -0.021401
							CHANNELS 3 Zrotation Yrotation Xrotation
							JOINT RightHand
							{
								OFFSET -0.255298 0.007772 -0.005559
								CHANNELS 3 Zrotation Yrotation Xrotation
								End Site
								{
									OFFSET 0.000000 0.000000 0.000000
								}
							}
						}
					}
				}
			}
		}
	}
}
MOTION
Frames: 15
Frame Time: 0.050000
-0.002687 0.955459 0.006920 -3.104497 2.407672 4.155510 5.164988 -0.427964 -6.234651 0.729915 -0.013005 -1.534254 -6.537115 -7.396941 9.740980 0.000000 0.000000 0.000000 1.555935 0.603848 -5.660978 -0.120960 0.081637 1.736856 -5.246131 -14.330800 9.647398 0.000000 0.000000 0.000000 1.209229 0.226405 -5.097809 -6.822350 2.901477 -8.263964 3.113727 10.688156 5.904203 8.029143 -2.782880 -15.164892 0.000000 0.000000 0.000000 -8.572907 -1.719432 -1.334705 -59.809868 -3.316874 -6.336068 -9.587946 -19.698895 1.938695 0.000000 0.000000 0.000000 -10.729833 15.376420 3.939122 -11.266764 59.376404 -6.725264 -8.823726 4.284793 -0.001912 0.000000 0.000000 0.000000
-0.002472 0.955036 0.006583 -3.015738 2.380665 4.246723 5.077940 -0.438860 -6.396138 0.824084 -0.021063 -1.544538 -6.616613 -7.630549 9.602094 0.000000 0.000000 0.000000 1.280618 0.608071 -5.751385 0.049968 0.063407 1.817667 -5.220449 -14.263901 9.454475 0.000000 0.000000 0.000000 0.978562 0.229826 -5.281800 -6.727171 2.870781 -8.077862 3.187013 10.672444 5.514437 8.224327 -3.004409 -14.708420 0.000000 0.000000 0.000000 -8.801919 -1.348053 -2.715554 -59.541454 -2.929475 -6.428649 -10.134729 -20.453636 2.094500 0.000000 0.000000 0.000000 -10.777093 15.031088 3.848747 -10.630046 59.253510 -6.383609 -8.303017 4.140293 0.012419 0.000000 0.000000 0.000000
-0.002383 0.954159 0.006054 -2.992054 2.532530 4.055232 5.124303 -0.431094 -6.275536 0.678317 -0.021598 -1.199662 -6.394758 -7.545629 9.047883 0.000000 0.000000 0.000000 1.255225 0.612960 -5.790250 -0.023584 0.087924 2.225735 -5.233227 -14.238606 9.078779 0.000000 0.000000 0.000000 1.168221 0.236418 -5.328833 -6.770750 2.895597 -7.969457 3.016314 10.580617 5.387506 8.551622 -3.291032 -14.345016 0.000000 0.000000 0.000000 -9.081175 -1.652896 -2.743218 -59.277122 -2.755900 -6.436756 -9.899517 -20.876980 2.092829 0.000000 0.000000 0.000000 -10.427643 15.167497 3.946252 -11.756658 58.739372 -6.894914 -7.072858 2.990147 0.060052 0.000000 0.000000 0.000000
-0.002419 0.953459 0.005442 -3.017265 2.887917 3.592507 4.978828 -0.412884 -5.867832 0.794334 -0.035180 -1.119926 -6.336782 -7.613557 8.691803 0.000000 0.000000 0.000000 1.202480 0.569233 -5.379525 0.116858 0.074102 2.362600 -5.302659 -14.315181 8.740783 0.000000 0.000000 0.000000 1.285177 0.224808 -5.024949 -6.865811 2.942393 -7.942755 2.810523 10.800240 5.495807 8.936144 -3.516180 -14.271748 0.000000 0.000000 0.000000 -8.944889 -2.173876 -2.054449 -59.176380 -2.901743 -6.387172 -10.149597 -21.524700 2.174177 0.000000 0.000000 0.000000 -10.210259 14.940325 3.885362 -13.153317 58.142029 -7.394670 -5.400366 1.618211 0.086236 0.000000 0.000000 0.000000
-0.002692 0.952907 0.004653 -3.039886 3.115933 3.335012 5.060456 -0.400954 -5.673618 0.639678 -0.027742 -0.940161 -6.104458 -7.330897 8.411145 0.000000 0.000000 0.000000 1.298139 0.548199 -5.158413 0.318377 0.055903 2.622792 -5.454165 -14.578877 8.472811 0.000000 0.000000 0.000000 1.525829 0.229619 -5.009007 -6.977022 3.004508 -7.613238 2.732119 10.922075 5.460792 8.793771 -3.615616 -13.311331 0.000000 0.000000 0.000000 -9.053558 -2.246360 -1.319668 -58.981659 -3.168461 -6.220074 -10.002825 -22.105749 2.184319 0.000000 0.000000 0.000000 -10.471735 15.240389 3.914793 -14.477450 57.227386 -7.804245 -4.253323 0.579043 0.083975 0.000000 0.000000 0.000000
-0.003254 0.952575 0.003636 -3.086525 3.557223 3.009241 5.027289 -0.384229 -5.305264 0.771236 -0.042491 -0.869097 -6.012593 -7.186114 8.289617 0.000000 0.000000 0.000000 1.487705 0.517857 -4.833018 0.322387 0.045031 2.350579 -5.336630 -14.316206 8.523541 0.000000 0.000000 0.000000 1.693093 0.199668 -4.352220 -7.021106 3.016200 -7.969851 2.539910 11.337004 5.733947 9.002263 -3.754060 -13.047878 0.000000 0.000000 0.000000 -8.881883 -2.423499 -2.447192 -58.845394 -3.432761 -6.133784 -10.079609 -22.579182 2.198040 0.000000 0.000000 0.000000 -10.678180 14.898520 3.731800 -15.516987 56.866386 -8.048506 -2.956822 -0.448775 0.059026 0.000000 0.000000 0.000000
-0.004020 0.952562 0.002189 -3.113167 3.849225 2.799865 5.097125 -0.382039 -5.278415 0.823169 -0.059212 -0.576671 -6.043408 -7.048758 8.549433 0.000000 0.000000 0.000000 1.698450 0.496917 -4.600896 0.421554 0.026757 2.219423 -5.614895 -14.870038 8.749429 0.000000 0.000000 0.000000 1.825660 0.178293 -3.893973 -7.030461 3.025354 -7.973215 2.222052 11.672440 5.921432 9.363571 -4.014992 -12.777770 0.000000 0.000000 0.000000 -8.816519 -2.649347 -2.440009 -58.577850 -3.423060 -6.135808 -10.028489 -23.215986 2.208970 0.000000 0.000000 0.000000 -10.990891 14.929019 3.644954 -16.680218 56.292294 -8.323342 -1.982345 -1.347461 0.024945 0.000000 0.000000 0.000000
-0.004763 0.952761 0.000251 -3.080618 4.145636 2.761250 5.192129 -0.390689 -5.439281 0.772216 -0.061364 -0.395900 -6.130932 -7.095980 8.683973 0.000000 0.000000 0.000000 1.785207 0.479501 -4.426800 0.543641 0.005752 2.091947 -5.557275 -14.763165 9.181986 0.000000 0.000000 0.000000 1.933743 0.148241 -3.318581 -7.467357 3.188282 -8.186901 2.276865 12.059209 6.094493 9.677076 -3.977751 -13.597920 0.000000 0.000000 0.000000 -8.714189 -2.881648 -1.867755 -58.164646 -3.760049 -5.945602 -10.010411 -23.405544 2.190021 0.000000 0.000000 0.000000 -11.452942 14.806774 3.487161 -17.677727 56.157616 -8.586128 -1.472617 -2.620943 -0.008880 0.000000 0.000000 0.000000
-0.005366 0.952996 -0.001852 -3.081574 4.204605 2.838702 5.245886 -0.401027 -5.649845 0.861457 -0.075737 -0.260163 -6.280419 -7.257697 8.858862 0.000000 0.000000 0.000000 1.772754 0.502921 -4.632125 0.809324 -0.035037 1.906429 -5.632879 -14.913203 9.270016 0.000000 0.000000 0.000000 2.038667 0.128889 -2.961102 -7.515312 3.196697 -8.410964 2.118493 12.538168 6.370863 9.953990 -3.861083 -14.611811 0.000000 0.000000 0.000000 -8.391260 -2.757862 -1.399660 -58.213913 -3.750884 -6.036998 -10.254700 -23.612753 2.217565 0.000000 0.000000 0.000000 -12.314695 14.739459 3.262620 -18.473417 56.343277 -8.777699 -0.811567 -3.278206 -0.049286 0.000000 0.000000 0.000000
-0.005682 0.953232 -0.003467 -3.233853 4.228402 2.961009 5.271993 -0.396358 -5.522768 1.019300 -0.066518 -0.823651 -6.392039 -7.200054 9.271346 0.000000 0.000000 0.000000 1.840075 0.518031 -4.755299 0.931634 -0.052552 1.856184 -5.599714 -14.851726 9.365444 0.000000 0.000000 0.000000 2.326055 0.119387 -2.783360 -7.603736 3.204495 -8.969385 2.134654 13.032753 7.117079 10.295533 -3.736007 -15.848590 0.000000 0.000000 0.000000 -8.398832 -3.231299 -1.018775 -58.143520 -3.860070 -6.049213 -9.831279 -23.271866 2.086558 0.000000 0.000000 0.000000 -12.976239 14.798580 3.087103 -18.650059 56.623875 -8.737032 -0.985197 -3.868251 -0.050529 0.000000 0.000000 0.000000
-0.005738 0.953485 -0.004433 -3.281728 4.102816 3.071636 5.373049 -0.393243 -5.489308 1.087569 -0.060365 -1.113842 -6.427200 -7.165069 9.453732 0.000000 0.000000 0.000000 1.860047 0.524537 -4.816904 0.900422 -0.053601 1.661592 -5.565046 -14.794578 9.388922 0.000000 0.000000 0.000000 2.315302 0.119532 -2.797569 -7.589120 3.193261 -9.037201 2.174264 13.483027 7.142920 10.579945 -3.783593 -16.239849 0.000000 0.000000 0.000000 -8.365183 -3.147393 -2.241738 -57.945488 -4.026118 -5.949701 -9.791485 -22.450974 1.993452 0.000000 0.000000 0.000000 -13.166331 15.119885 3.113972 -18.612734 57.335335 -8.760833 -1.269753 -4.666369 -0.045679 0.000000 0.000000 0.000000
-0.005758 0.953585 -0.005029 -3.331809 4.116422 3.269465 5.563763 -0.401040 -5.673752 1.090858 -0.050874 -1.335098 -6.639541 -7.311646 9.841354 0.000000 0.000000 0.000000 2.084442 0.549033 -5.000402 0.695359 -0.026245 1.692620 -5.493833 -14.647034 9.300492 0.000000 0.000000 0.000000 2.363085 0.120356 -2.837027 -7.551278 3.169132 -9.215728 2.280324 13.733493 7.327529 11.166170 -3.836279 -17.446672 0.000000 0.000000 0.000000 -8.420619 -3.165016 -2.301733 -58.058064 -4.134419 -5.926707 -9.416118 -21.810764 1.864989 0.000000 0.000000 0.000000 -13.372109 15.167519 3.064660 -18.512405 58.507626 -8.869573 -1.637480 -4.478834 -0.022517 0.000000 0.000000 0.000000
-0.005751 0.953748 -0.005508 -3.486944 4.222770 3.498101 5.832868 -0.406178 -5.798697 0.990084 -0.039280 -1.389881 -6.737690 -7.550476 9.731738 0.000000 0.000000 0.000000 2.200466 0.561381 -5.091875 0.709817 -0.033470 1.522649 -5.407665 -14.449754 9.045249 0.000000 0.000000 0.000000 2.381314 0.131575 -3.063834 -7.361768 3.092029 -9.349004 2.332031 13.902965 7.500224 11.601552 -3.836533 -18.459217 0.000000 0.000000 0.000000 -8.488401 -3.491839 -1.630223 -58.065834 -4.391678 -5.802457 -8.753609 -21.302883 1.703056 0.000000 0.000000 0.000000 -13.280141 15.654572 3.198017 -18.308905 59.441990 -8.916727 -1.872596 -4.525007 -0.009732 0.000000 0.000000 0.000000
-0.005760 0.953605 -0.005952 -3.559477 4.361167 3.554513 6.109409 -0.413244 -6.028628 0.705433 -0.024667 -1.124803 -6.699090 -7.426335 9.798657 0.000000 0.000000 0.000000 2.236055 0.584510 -5.278068 0.649954 -0.015624 1.866370 -5.283482 -14.167344 8.742417 0.000000 0.000000 0.000000 2.328832 0.125350 -2.973152 -7.217861 3.030310 -9.587250 2.417194 13.861515 7.612790 12.140428 -3.913367 -19.497351 0.000000 0.000000 0.000000 -8.574645 -3.829890 -0.931387 -58.151207 -4.549337 -5.724193 -8.373143 -20.850107 1.609939 0.000000 0.000000 0.000000 -13.544527 15.862805 3.195099 -17.732269 60.524075 -8.807619 -2.460124 -4.151280 0.024489 0.000000 0.000000 0.000000
-0.005698 0.953365 -0.006356 -3.647756 4.456691 3.809085 6.149573 -0.430995 -6.375450 0.620467 -0.020751 -1.027149 -6.513364 -7.181443 9.642597 0.000000 0.000000 0.000000 2.195760 0.579729 -5.251386 0.628786 -0.023532 1.524563 -5.125829 -13.835964 8.641995 0.000000 0.000000 0.000000 2.342917 0.131335 -3.116514 -7.114346 2.994518 -9.488083 2.391871 13.585306 7.436766 12.164908 -3.885285 -19.764782 0.000000 0.000000 0.000000 -8.557022 -4.109977 -0.467506 -58.411564 -4.948794 -5.541715 -8.018875 -20.387796 1.536122 0.000000 0.000000 0.000000 -13.342561 16.198809 3.355110 -17.277351 61.610687 -8.863134 -3.030450 -3.845455 0.054085 0.000000 0.000000 0.000000
